<svg width="1114" height="266" viewBox="0 0 1114 266" fill="none" xmlns="http://www.w3.org/2000/svg">
<path d="M99.6964 125.596C99.1054 123.187 98.1734 121.073 96.9005 119.255C95.6276 117.391 94.0365 115.822 92.1271 114.549C90.2632 113.231 88.081 112.254 85.5807 111.617C83.1258 110.935 80.4209 110.594 77.4659 110.594C71.1013 110.594 65.6687 112.117 61.1681 115.163C56.7129 118.209 53.3033 122.596 50.9393 128.324C48.6208 134.052 47.4616 140.962 47.4616 149.054C47.4616 157.237 48.5754 164.238 50.803 170.057C53.0305 175.876 56.3492 180.332 60.7589 183.423C65.1687 186.514 70.6467 188.06 77.1931 188.06C82.9667 188.06 87.7628 187.219 91.5816 185.537C95.4457 183.855 98.3325 181.468 100.242 178.377C102.151 175.285 103.106 171.648 103.106 167.466L109.652 168.148H77.7387V141.144H139.657V160.51C139.657 173.24 136.952 184.128 131.542 193.174C126.177 202.176 118.767 209.086 109.311 213.905C99.9009 218.678 89.1039 221.065 76.9204 221.065C63.3275 221.065 51.3939 218.178 41.1197 212.404C30.8455 206.631 22.8217 198.402 17.0481 187.719C11.32 177.036 8.45595 164.329 8.45595 149.6C8.45595 138.053 10.2062 127.824 13.7067 118.914C17.2527 110.003 22.1625 102.479 28.4361 96.3421C34.7097 90.1594 41.9608 85.4997 50.1892 82.3628C58.4177 79.1806 67.2371 77.5894 76.6476 77.5894C84.9215 77.5894 92.6044 78.7714 99.6964 81.1354C106.834 83.4539 113.13 86.7726 118.585 91.0914C124.086 95.3647 128.519 100.434 131.883 106.298C135.247 112.163 137.293 118.595 138.02 125.596H99.6964ZM208.343 221.065C196.977 221.065 187.249 218.814 179.157 214.314C171.065 209.768 164.859 203.448 160.54 195.356C156.222 187.219 154.062 177.786 154.062 167.057C154.062 156.328 156.222 146.918 160.54 138.826C164.859 130.688 171.065 124.369 179.157 119.868C187.249 115.322 196.977 113.049 208.343 113.049C219.708 113.049 229.437 115.322 237.529 119.868C245.621 124.369 251.826 130.688 256.145 138.826C260.464 146.918 262.623 156.328 262.623 167.057C262.623 177.786 260.464 187.219 256.145 195.356C251.826 203.448 245.621 209.768 237.529 214.314C229.437 218.814 219.708 221.065 208.343 221.065ZM208.615 193.242C211.798 193.242 214.548 192.174 216.867 190.037C219.185 187.901 220.981 184.855 222.254 180.9C223.527 176.945 224.163 172.239 224.163 166.784C224.163 161.283 223.527 156.578 222.254 152.668C220.981 148.713 219.185 145.667 216.867 143.531C214.548 141.394 211.798 140.326 208.615 140.326C205.251 140.326 202.365 141.394 199.955 143.531C197.546 145.667 195.705 148.713 194.432 152.668C193.159 156.578 192.522 161.283 192.522 166.784C192.522 172.239 193.159 176.945 194.432 180.9C195.705 184.855 197.546 187.901 199.955 190.037C202.365 192.174 205.251 193.242 208.615 193.242ZM328.36 221.065C316.995 221.065 307.266 218.814 299.174 214.314C291.082 209.768 284.876 203.448 280.558 195.356C276.239 187.219 274.079 177.786 274.079 167.057C274.079 156.328 276.239 146.918 280.558 138.826C284.876 130.688 291.082 124.369 299.174 119.868C307.266 115.322 316.995 113.049 328.36 113.049C338.634 113.049 347.522 114.913 355.023 118.641C362.569 122.323 368.411 127.551 372.548 134.325C376.685 141.053 378.776 148.963 378.822 158.056H343.908C343.408 152.555 341.816 148.372 339.134 145.508C336.497 142.599 333.088 141.144 328.905 141.144C325.632 141.144 322.768 142.099 320.313 144.008C317.858 145.872 315.949 148.713 314.585 152.532C313.221 156.305 312.539 161.056 312.539 166.784C312.539 172.512 313.221 177.286 314.585 181.104C315.949 184.878 317.858 187.719 320.313 189.628C322.768 191.492 325.632 192.424 328.905 192.424C331.679 192.424 334.134 191.788 336.27 190.515C338.407 189.196 340.134 187.287 341.453 184.787C342.817 182.241 343.635 179.15 343.908 175.513H378.822C378.685 184.741 376.571 192.788 372.48 199.652C368.388 206.472 362.592 211.745 355.091 215.473C347.635 219.201 338.725 221.065 328.36 221.065ZM423.538 220.792C416.856 220.792 410.946 219.701 405.809 217.519C400.717 215.291 396.716 211.927 393.807 207.426C390.897 202.926 389.443 197.198 389.443 190.242C389.443 184.514 390.42 179.627 392.375 175.581C394.33 171.489 397.057 168.148 400.558 165.557C404.058 162.965 408.127 160.988 412.764 159.624C417.447 158.26 422.493 157.374 427.903 156.964C433.767 156.51 438.472 155.964 442.018 155.328C445.61 154.646 448.201 153.714 449.792 152.532C451.383 151.305 452.179 149.691 452.179 147.69V147.418C452.179 144.69 451.133 142.599 449.042 141.144C446.951 139.689 444.269 138.962 440.996 138.962C437.404 138.962 434.472 139.757 432.199 141.349C429.971 142.894 428.63 145.281 428.175 148.509H393.534C393.989 142.144 396.012 136.28 399.603 130.915C403.24 125.505 408.536 121.187 415.492 117.959C422.447 114.686 431.13 113.049 441.541 113.049C449.042 113.049 455.77 113.936 461.726 115.709C467.681 117.436 472.75 119.868 476.933 123.005C481.115 126.096 484.297 129.733 486.479 133.916C488.707 138.053 489.821 142.553 489.821 147.418V219.155H454.634V204.426H453.816C451.724 208.336 449.179 211.495 446.178 213.905C443.223 216.314 439.836 218.064 436.018 219.155C432.244 220.246 428.085 220.792 423.538 220.792ZM435.813 197.061C438.677 197.061 441.359 196.47 443.86 195.288C446.405 194.106 448.474 192.401 450.065 190.174C451.656 187.946 452.452 185.241 452.452 182.059V173.33C451.452 173.74 450.383 174.126 449.247 174.49C448.156 174.853 446.974 175.194 445.701 175.513C444.473 175.831 443.155 176.126 441.746 176.399C440.382 176.672 438.95 176.922 437.45 177.149C434.54 177.604 432.153 178.354 430.289 179.4C428.471 180.4 427.107 181.65 426.198 183.15C425.334 184.605 424.902 186.241 424.902 188.06C424.902 190.969 425.925 193.197 427.971 194.743C430.017 196.288 432.631 197.061 435.813 197.061ZM507.806 258.434V114.413H545.175V132.688H545.994C547.357 129.142 549.358 125.892 551.994 122.937C554.631 119.936 557.904 117.55 561.814 115.777C565.724 113.958 570.27 113.049 575.452 113.049C582.362 113.049 588.932 114.89 595.16 118.573C601.433 122.255 606.525 128.051 610.435 135.961C614.39 143.872 616.367 154.146 616.367 166.784C616.367 178.877 614.481 188.901 610.707 196.857C606.98 204.812 601.979 210.745 595.705 214.655C589.477 218.564 582.635 220.519 575.18 220.519C570.27 220.519 565.883 219.724 562.019 218.132C558.2 216.496 554.927 214.291 552.199 211.518C549.517 208.699 547.448 205.517 545.994 201.971H545.448V258.434H507.806ZM544.63 166.784C544.63 171.876 545.289 176.285 546.607 180.013C547.971 183.696 549.881 186.56 552.335 188.605C554.836 190.606 557.813 191.606 561.269 191.606C564.724 191.606 567.656 190.628 570.065 188.674C572.52 186.673 574.384 183.832 575.657 180.15C576.975 176.422 577.634 171.967 577.634 166.784C577.634 161.602 576.975 157.169 575.657 153.487C574.384 149.759 572.52 146.918 570.065 144.963C567.656 142.962 564.724 141.962 561.269 141.962C557.813 141.962 554.836 142.962 552.335 144.963C549.881 146.918 547.971 149.759 546.607 153.487C545.289 157.169 544.63 161.602 544.63 166.784ZM632.137 219.155V114.413H669.778V219.155H632.137ZM650.958 103.502C645.866 103.502 641.502 101.82 637.865 98.4561C634.228 95.092 632.409 91.0459 632.409 86.318C632.409 81.59 634.228 77.544 637.865 74.1798C641.502 70.8157 645.866 69.1337 650.958 69.1337C656.095 69.1337 660.459 70.8157 664.05 74.1798C667.687 77.544 669.506 81.59 669.506 86.318C669.506 91.0459 667.687 95.092 664.05 98.4561C660.459 101.82 656.095 103.502 650.958 103.502ZM751.421 114.413V141.69H682.411V114.413H751.421ZM695.777 89.3184H733.418V185.469C733.418 186.923 733.668 188.151 734.168 189.151C734.668 190.106 735.441 190.833 736.487 191.333C737.533 191.788 738.874 192.015 740.51 192.015C741.647 192.015 742.965 191.879 744.465 191.606C746.011 191.333 747.148 191.106 747.875 190.924L753.33 217.382C751.648 217.882 749.239 218.496 746.102 219.223C743.011 219.951 739.328 220.428 735.055 220.655C726.417 221.11 719.166 220.224 713.302 217.996C707.437 215.723 703.028 212.154 700.073 207.29C697.118 202.426 695.686 196.334 695.777 189.015V89.3184ZM795.967 220.792C789.284 220.792 783.374 219.701 778.237 217.519C773.146 215.291 769.145 211.927 766.235 207.426C763.326 202.926 761.871 197.198 761.871 190.242C761.871 184.514 762.849 179.627 764.803 175.581C766.758 171.489 769.486 168.148 772.986 165.557C776.487 162.965 780.556 160.988 785.193 159.624C789.875 158.26 794.921 157.374 800.331 156.964C806.196 156.51 810.901 155.964 814.447 155.328C818.038 154.646 820.63 153.714 822.221 152.532C823.812 151.305 824.608 149.691 824.608 147.69V147.418C824.608 144.69 823.562 142.599 821.471 141.144C819.38 139.689 816.697 138.962 813.424 138.962C809.833 138.962 806.9 139.757 804.627 141.349C802.4 142.894 801.059 145.281 800.604 148.509H765.963C766.417 142.144 768.44 136.28 772.032 130.915C775.669 125.505 780.965 121.187 787.92 117.959C794.876 114.686 803.559 113.049 813.97 113.049C821.471 113.049 828.199 113.936 834.154 115.709C840.11 117.436 845.179 119.868 849.361 123.005C853.544 126.096 856.726 129.733 858.908 133.916C861.136 138.053 862.249 142.553 862.249 147.418V219.155H827.062V204.426H826.244C824.153 208.336 821.607 211.495 818.607 213.905C815.652 216.314 812.265 218.064 808.446 219.155C804.673 220.246 800.513 220.792 795.967 220.792ZM808.242 197.061C811.106 197.061 813.788 196.47 816.288 195.288C818.834 194.106 820.902 192.401 822.494 190.174C824.085 187.946 824.88 185.241 824.88 182.059V173.33C823.88 173.74 822.812 174.126 821.675 174.49C820.584 174.853 819.402 175.194 818.129 175.513C816.902 175.831 815.584 176.126 814.174 176.399C812.81 176.672 811.378 176.922 809.878 177.149C806.969 177.604 804.582 178.354 802.718 179.4C800.9 180.4 799.536 181.65 798.627 183.15C797.763 184.605 797.331 186.241 797.331 188.06C797.331 190.969 798.354 193.197 800.399 194.743C802.445 196.288 805.059 197.061 808.242 197.061ZM917.877 79.4988V219.155H880.235V79.4988H917.877ZM938.147 219.155V198.425L983.971 143.599V143.053H939.783V114.413H1028.43V137.325L986.699 189.969V190.515H1030.07V219.155H938.147Z" fill="black"/>
<path fill-rule="evenodd" clip-rule="evenodd" d="M1074.7 0H1023.17V43.803H1068.26V90.1821H1113.35V38.6495C1113.35 17.304 1096.05 0 1074.7 0Z" fill="#4475F2"/>
</svg>
